<svg id="logo-desk" xmlns="http://www.w3.org/2000/svg" width="142" height="21" viewBox="0 0 142 21"><defs><style>.cls-1{fill:#0095d7;}.cls-2{fill:#666;}.cls-3{fill:#333;}</style></defs><title>logo-desk</title><path class="cls-1" d="M71.43,4.22a1.87,1.87,0,0,0,.45-1.37,1.92,1.92,0,0,0-.46-1.4,2.59,2.59,0,0,0-2.92,0,2,2,0,0,0-.44,1.42,1.93,1.93,0,0,0,.44,1.4,2.63,2.63,0,0,0,2.93,0Z"/><path class="cls-2" d="M107.68,20a7.51,7.51,0,0,0,1.32-.26V18.4a10.65,10.65,0,0,1-1.39.22,11.19,11.19,0,0,1-1.34.07,4.35,4.35,0,0,1-3.48-1.27,6.19,6.19,0,0,1-1.09-4.05q0-5.31,4.62-5.31c.43,0,.88,0,1.34.07A7.76,7.76,0,0,1,109,8.4V7c-.46-.09-.93-.17-1.44-.23s-1-.08-1.41-.08q-6.09,0-6.09,6.76t6.09,6.71C106.65,20.11,107.16,20.08,107.68,20Z"/><path class="cls-2" d="M119.86,18.4a7.55,7.55,0,0,0,1.49-5,7.52,7.52,0,0,0-1.49-5,6.2,6.2,0,0,0-8.61,0,7.52,7.52,0,0,0-1.49,5,7.55,7.55,0,0,0,1.49,5,6.22,6.22,0,0,0,8.61,0Zm-7.44-1a6.62,6.62,0,0,1-1-4.07,6.62,6.62,0,0,1,1-4.08,4.43,4.43,0,0,1,6.27,0,6.62,6.62,0,0,1,1,4.08,6.58,6.58,0,0,1-1,4.08,4.39,4.39,0,0,1-6.27,0Z"/><path class="cls-2" d="M123.4,19.89H125V9.58a15.31,15.31,0,0,1,2.22-1.11,5.44,5.44,0,0,1,1.91-.41,2.21,2.21,0,0,1,1.72.61,2.94,2.94,0,0,1,.57,2.05v9.17H133V9.56a16,16,0,0,1,2.26-1.11,5.24,5.24,0,0,1,1.83-.39,2.23,2.23,0,0,1,1.72.61,2.94,2.94,0,0,1,.57,2.05v9.17H141V10.16a3.72,3.72,0,0,0-.84-2.69,3.39,3.39,0,0,0-2.51-.86,4.75,4.75,0,0,0-1,.1,5.65,5.65,0,0,0-1.08.32,10.48,10.48,0,0,0-1.23.55c-.44.23-.94.51-1.48.85h-.12a2.92,2.92,0,0,0-3.07-1.82,5.52,5.52,0,0,0-2.07.43A20.31,20.31,0,0,0,125,8.37h-.1l-.14-1.51H123.4Z"/><path class="cls-3" d="M.05,19.89H3.38L5,15.23h7.39L14,19.89h3.33V19.7L11.23,2H6.13L.05,19.7Zm5.74-7.36L7.44,7.8,8.52,4.44h.29L9.92,7.8l1.62,4.73Z"/><path class="cls-3" d="M29.7,18.34a7,7,0,0,0,1.85-5.21,7.35,7.35,0,0,0-1.39-4.9,5.12,5.12,0,0,0-4.07-1.59A5.09,5.09,0,0,0,22,8.26V.38H18.68v19.1c.67.15,1.29.26,1.84.35s1.07.16,1.55.21.91.08,1.32.09l1.18,0A7.17,7.17,0,0,0,29.7,18.34Zm-6.54-.58c-.43,0-.81-.1-1.13-.16V11.88a2.38,2.38,0,0,1,.87-2,3.57,3.57,0,0,1,2.22-.66,3.85,3.85,0,0,1,1.4.22,2,2,0,0,1,.95.71A3.48,3.48,0,0,1,28,11.42a9.92,9.92,0,0,1,.17,2A8.83,8.83,0,0,1,28,15.5a3.31,3.31,0,0,1-.64,1.36,2.38,2.38,0,0,1-1.13.74,5.88,5.88,0,0,1-1.67.22C24,17.82,23.58,17.8,23.16,17.76Z"/><path class="cls-3" d="M33.66,19.89H37V.38H33.66Z"/><path class="cls-3" d="M48.19,19.9a15.33,15.33,0,0,0,2.39-.54l-.12-2.44a15.14,15.14,0,0,1-2.23.45,16.83,16.83,0,0,1-2.24.16,6.11,6.11,0,0,1-1.52-.16,2.48,2.48,0,0,1-1-.53,2.44,2.44,0,0,1-.65-1,5.67,5.67,0,0,1-.3-1.5h8.4a4.63,4.63,0,0,0,.16-.87c0-.3,0-.65,0-1,0-3.88-1.82-5.82-5.48-5.82a6.28,6.28,0,0,0-4.79,1.73,7.24,7.24,0,0,0-1.63,5.12q0,6.63,6.49,6.62A15.92,15.92,0,0,0,48.19,19.9ZM47.43,9.81a4.52,4.52,0,0,1,.66,2.62H42.47a4.29,4.29,0,0,1,.84-2.59A2.75,2.75,0,0,1,45.46,9,2.36,2.36,0,0,1,47.43,9.81Z"/><path class="cls-3" d="M64.38,18.34a7,7,0,0,0,1.85-5.21,7.35,7.35,0,0,0-1.39-4.9,5.12,5.12,0,0,0-4.07-1.59,5.09,5.09,0,0,0-4.06,1.62V.38H53.36v19.1c.67.15,1.29.26,1.84.35s1.07.16,1.55.21.91.08,1.31.09l1.19,0A7.17,7.17,0,0,0,64.38,18.34Zm-6.54-.58c-.43,0-.81-.1-1.13-.16V11.88a2.38,2.38,0,0,1,.87-2A3.57,3.57,0,0,1,59.8,9.2a3.85,3.85,0,0,1,1.4.22,2,2,0,0,1,.95.71,3.48,3.48,0,0,1,.53,1.29,9.92,9.92,0,0,1,.17,2,8.83,8.83,0,0,1-.21,2.1A3.31,3.31,0,0,1,62,16.86a2.38,2.38,0,0,1-1.13.74,5.88,5.88,0,0,1-1.67.22C58.72,17.82,58.26,17.8,57.84,17.76Z"/><path class="cls-3" d="M68.28,19.89h3.36v-13H68.28Z"/><path class="cls-3" d="M81.76,20.06A9.3,9.3,0,0,0,83,19.82V17.28a4.88,4.88,0,0,1-1.59.29,2,2,0,0,1-1.53-.5,2.4,2.4,0,0,1-.48-1.67V9.7H83V6.86H79.41V3l-2.61.31-.5,3.58H73.64V9.7H76.1v6.47a4,4,0,0,0,1.06,3,4.49,4.49,0,0,0,3.19,1A9.55,9.55,0,0,0,81.76,20.06Z"/><path class="cls-3" d="M93.87,19.1a3.56,3.56,0,0,0,1.43-3A4,4,0,0,0,95,14.41a3,3,0,0,0-.89-1.13,4.1,4.1,0,0,0-1.38-.71,10.59,10.59,0,0,0-1.74-.4,9.9,9.9,0,0,1-2.07-.52,1.15,1.15,0,0,1-.73-1.15c0-1,.82-1.47,2.44-1.47a13.32,13.32,0,0,1,1.77.14c.66.1,1.42.25,2.29.44l.1-2.56c-.52-.1-1-.17-1.41-.23l-1.14-.15c-.35,0-.68-.06-1-.08s-.63,0-.93,0a6.36,6.36,0,0,0-3.92,1.06A3.46,3.46,0,0,0,85,10.57a3.92,3.92,0,0,0,.45,2,3.28,3.28,0,0,0,1.13,1.15,5.08,5.08,0,0,0,1.53.56c.55.12,1.09.21,1.6.29a5.71,5.71,0,0,1,1.78.54,1.2,1.2,0,0,1,.61,1.16c0,1-.82,1.49-2.46,1.49a14.79,14.79,0,0,1-2.26-.17c-.78-.11-1.61-.26-2.5-.46v2.42c1,.19,1.84.34,2.66.43a18.68,18.68,0,0,0,2.24.15A6.81,6.81,0,0,0,93.87,19.1Z"/><path class="cls-3" d="M98.7,19.65a1.25,1.25,0,0,0,.37-1,1.24,1.24,0,0,0-.37-1,1.76,1.76,0,0,0-2,0,1.22,1.22,0,0,0-.37,1,1.25,1.25,0,0,0,.37,1,1.66,1.66,0,0,0,2,0Z"/></svg>